<?xml version="1.0" standalone="no"?>
<!DOCTYPE svg PUBLIC "-//W3C//DTD SVG 20010904//EN" "http://www.w3.org/TR/2001/REC-SVG-20010904/DTD/svg10.dtd">
<svg version="1.0" xmlns="http://www.w3.org/2000/svg"
    width="500.000000pt" height="500.000000pt" viewBox="0 0 500.000000 500.000000"
    preserveAspectRatio="xMidYMid meet">

    <g transform="translate(0.000000,500.000000) scale(0.100000,-0.100000)"
        fill="#000000" stroke="none">
        <path
            d="M908 4671 c-46 -9 -108 -50 -144 -94 -96 -122 -172 -497 -161 -802 7
-198 14 -232 88 -420 51 -131 67 -161 127 -235 139 -172 284 -270 468 -317
102 -25 107 -27 74 -35 -80 -18 -163 -13 -245 16 -44 16 -87 33 -95 40 -9 6
-8 2 3 -10 16 -20 16 -22 2 -28 -23 -9 -27 -8 -19 5 4 8 -1 9 -16 4 -15 -5
-20 -3 -16 3 4 6 -1 10 -11 10 -49 -4 -157 77 -205 152 -26 40 -28 42 -22 15
15 -67 60 -117 174 -193 113 -75 124 -87 79 -77 -44 10 -117 47 -160 81 -19
15 -28 21 -21 14 17 -20 15 -30 -5 -24 -10 3 -5 -5 11 -18 16 -13 40 -33 54
-46 48 -42 161 -68 417 -93 119 -11 249 4 472 57 52 12 11 -13 -57 -34 -88
-28 -159 -40 -325 -52 -77 -6 -173 -16 -213 -22 -74 -11 -210 1 -271 24 -13 5
-26 7 -28 4 -8 -8 102 -39 162 -46 l60 -7 -59 -2 c-33 0 -57 -3 -55 -5 2 -2
45 -11 95 -20 104 -18 224 -19 429 -6 123 8 155 14 260 50 138 46 160 50 90
13 -126 -66 -334 -132 -423 -134 -20 0 -46 -4 -57 -9 -22 -8 -3 -14 107 -30
l53 -8 -65 -2 c-47 -2 -55 -5 -30 -8 l35 -5 -45 -12 c-36 -9 -54 -9 -90 2 -25
7 -49 13 -55 13 -18 0 20 -20 60 -31 22 -6 43 -16 47 -23 10 -16 224 -21 305
-6 79 13 232 73 330 129 80 45 164 81 191 81 9 0 -10 -15 -43 -33 -93 -50
-180 -103 -304 -185 -129 -86 -198 -116 -309 -138 -196 -39 -318 -15 -444 87
l-73 60 68 -65 c38 -36 74 -66 80 -66 7 0 6 -4 -3 -10 -9 -6 -20 -5 -30 3 -13
11 -13 10 -1 -6 8 -10 20 -16 27 -13 7 3 18 -2 25 -10 16 -20 141 -79 198 -94
91 -24 152 -29 242 -19 87 10 97 14 267 103 97 51 197 105 222 119 47 28 65
34 55 17 -3 -5 11 -3 32 4 76 26 172 41 186 27 9 -9 9 -14 -2 -20 -11 -7 -11
-9 0 -14 8 -3 1 -6 -16 -7 -26 -1 -27 -3 -10 -10 17 -7 16 -9 -10 -10 l-30 -2
33 -9 c18 -6 35 -16 38 -24 3 -8 12 -11 21 -8 10 4 14 2 9 -5 -4 -6 4 -13 21
-16 16 -2 -12 -1 -62 2 -137 10 -252 6 -330 -12 -82 -20 -255 -102 -305 -146
-21 -19 -26 -27 -13 -21 12 6 25 16 28 21 8 14 91 55 157 79 127 46 399 54
468 14 19 -11 51 -26 72 -32 40 -13 56 -36 31 -45 -9 -4 -18 -4 -21 -1 -3 3 1
5 9 5 8 0 -6 9 -30 20 -55 25 -67 25 -21 0 43 -23 36 -25 -21 -5 -24 9 -55 13
-69 10 -16 -4 -20 -3 -12 3 27 18 -173 38 -254 26 l-59 -9 70 -6 70 -5 -75 -3
c-80 -2 -167 -21 -178 -38 -4 -6 -22 -14 -40 -18 -18 -4 -31 -9 -28 -13 10 -9
-33 -34 -46 -26 -7 4 -8 3 -4 -4 5 -8 0 -12 -12 -12 -22 0 -46 -23 -35 -34 4
-4 0 -4 -8 -1 -10 4 -34 -10 -64 -37 -27 -24 -50 -41 -51 -38 -1 3 -6 1 -11
-4 -5 -5 -2 -6 6 -1 9 5 12 3 9 -6 -3 -8 -11 -14 -19 -14 -8 0 -13 -8 -11 -19
2 -11 -1 -15 -7 -11 -7 3 -8 0 -5 -9 4 -9 0 -18 -9 -22 -14 -5 -22 -25 -52
-121 -10 -32 8 -8 31 41 14 29 33 62 44 73 10 11 25 33 33 49 8 16 26 38 38
49 24 20 24 20 0 -8 -34 -38 -21 -34 15 5 16 17 23 28 17 24 -18 -10 -16 9 2
24 12 10 15 10 15 -1 0 -7 15 1 33 19 36 35 102 66 119 56 6 -4 8 -3 4 4 -3 5
-3 12 1 15 5 2 2 2 -5 0 -7 -1 -10 2 -7 7 3 6 18 7 32 4 19 -5 24 -4 18 6 -6
9 0 10 26 5 36 -8 31 8 -6 19 -11 3 0 3 25 1 34 -3 40 -2 25 6 -15 7 -9 8 25
5 31 -4 39 -2 25 4 -14 6 10 9 73 9 69 1 91 -2 86 -11 -5 -8 -2 -9 12 -3 10 4
33 9 49 11 28 3 29 3 5 -5 -18 -7 -20 -9 -7 -10 11 -1 15 -6 11 -12 -4 -8 0
-9 15 -4 12 3 36 3 54 -1 29 -6 30 -8 12 -16 -15 -6 -11 -7 13 -3 22 3 31 1
26 -6 -4 -7 0 -9 12 -6 11 3 35 -3 54 -13 30 -16 32 -19 13 -20 -13 0 -23 3
-23 8 0 4 -12 7 -27 7 -16 0 -46 4 -68 8 l-40 6 35 -14 35 -13 -30 -2 c-18 -1
4 -9 55 -20 102 -21 279 -69 300 -80 9 -5 -3 -7 -30 -5 -38 4 -35 3 15 -8 76
-16 122 -35 129 -52 4 -10 -7 -9 -40 6 -25 10 -55 19 -67 18 -12 0 -1 -7 25
-15 26 -8 49 -18 52 -23 3 -5 -11 -3 -32 5 -20 7 -50 13 -67 13 -21 -1 -10 -6
35 -18 36 -10 83 -30 105 -46 44 -30 20 -28 -45 5 -19 10 -51 21 -70 25 -25 5
-11 -5 46 -34 116 -59 128 -80 23 -41 -95 36 -212 70 -217 65 -2 -2 25 -13 60
-23 70 -23 162 -62 156 -67 -2 -2 -57 14 -121 35 -147 49 -234 72 -256 67 -19
-5 -19 -4 79 -35 77 -24 144 -52 138 -57 -2 -2 -35 4 -74 15 -82 21 -256 45
-276 37 -7 -3 7 -7 32 -8 28 -2 10 -5 -50 -10 l-95 -6 115 2 c71 1 132 -4 160
-12 30 -8 34 -11 13 -8 -18 3 -48 7 -65 10 -18 3 -4 -3 32 -13 36 -10 59 -20
51 -23 -7 -3 10 -11 38 -18 31 -8 48 -17 44 -23 -3 -7 -1 -8 6 -4 15 10 64 -1
57 -12 -3 -5 22 -14 55 -21 33 -8 62 -18 65 -22 3 -5 12 -9 21 -9 9 0 34 -9
57 -19 23 -11 75 -34 116 -52 41 -18 88 -42 105 -53 16 -11 52 -28 80 -38 l50
-17 -46 -1 c-26 0 -63 -7 -83 -15 -28 -12 -79 -16 -204 -17 -92 -1 -178 1
-192 5 -14 4 -7 -2 15 -13 35 -17 37 -20 15 -20 l-25 -1 25 -11 c14 -6 20 -12
13 -15 -16 -6 34 -53 56 -53 13 0 14 -2 2 -9 -23 -15 5 -41 43 -41 17 0 38 -5
46 -10 11 -7 3 -10 -29 -10 -78 0 -36 -11 64 -17 53 -3 108 -11 121 -18 23
-12 21 -13 -38 -19 -35 -4 -79 -11 -98 -16 -34 -9 20 -7 150 6 l45 4 -50 -15
c-27 -8 -58 -15 -68 -15 -24 0 -92 -29 -85 -36 3 -3 32 1 64 9 33 8 102 20
154 26 52 6 111 14 130 17 26 3 31 2 20 -5 -8 -6 -11 -11 -7 -11 4 0 -4 -16
-19 -35 -31 -41 -24 -45 18 -10 20 17 41 25 66 25 35 -1 36 -1 17 -15 -33 -25
-65 -57 -65 -66 0 -4 11 3 25 17 38 38 85 53 182 59 90 5 99 2 28 -10 -38 -7
-39 -8 -15 -17 14 -5 38 -7 54 -4 39 8 157 -4 150 -15 -3 -5 -24 -10 -47 -10
-23 -1 -55 -5 -72 -9 -26 -7 -27 -8 -6 -9 17 -1 22 -5 17 -18 -5 -15 -3 -15 9
2 11 14 29 20 66 21 27 2 64 5 82 8 28 6 30 5 13 -6 -10 -7 -28 -21 -40 -30
-20 -16 -19 -17 34 -11 42 4 65 0 99 -15 34 -16 40 -21 25 -25 -11 -3 -3 -3
17 0 35 4 38 2 117 -89 114 -130 402 -415 402 -397 0 18 -43 108 -64 134 -12
14 -11 8 4 -20 35 -69 22 -60 -57 42 -42 54 -128 154 -190 222 -62 68 -110
127 -107 132 8 13 -70 169 -88 177 -5 2 -9 31 -10 65 -1 45 -2 51 -5 22 -5
-56 -11 -71 -24 -58 -8 8 -6 47 5 134 8 68 16 153 17 189 3 90 45 171 105 206
56 33 58 43 3 12 -44 -24 -105 -92 -132 -144 -34 -67 -49 -205 -33 -301 5 -29
4 -43 -3 -43 -6 0 -11 5 -11 11 0 6 -14 22 -31 36 -16 14 -47 51 -68 82 -21
31 -63 94 -95 140 -31 46 -55 86 -52 89 7 7 3 13 70 -88 105 -158 121 -181
144 -208 18 -21 22 -22 17 -7 -4 11 -10 68 -13 126 -5 117 4 161 45 209 28 34
84 160 77 172 -3 5 -10 5 -16 2 -8 -5 -9 -1 -4 12 10 26 36 151 42 199 3 29 2
36 -6 25 -5 -8 -10 -31 -11 -50 0 -19 -6 -53 -14 -75 -13 -39 -13 -39 -15 -10
-2 26 -3 24 -12 -15 -5 -25 -12 -52 -15 -60 -3 -8 -5 -22 -4 -32 3 -22 -42
-115 -47 -99 -5 16 17 99 33 126 17 28 30 200 16 209 -6 4 -16 -13 -25 -42
-18 -62 -37 -99 -70 -137 -14 -16 -26 -33 -26 -36 0 -3 -6 -6 -12 -6 -7 -1
-27 -7 -45 -14 -18 -7 -35 -11 -38 -8 -3 3 -6 24 -7 47 -1 23 -5 39 -10 36 -4
-3 -8 23 -8 57 0 59 2 64 40 101 22 22 40 46 40 55 0 8 17 30 37 49 34 31 35
35 21 51 -15 17 -14 20 10 44 38 35 119 93 168 117 91 46 134 131 116 227 l-8
40 -7 -56 c-16 -128 -74 -195 -202 -234 -33 -10 -63 -18 -67 -17 -5 1 -8 -3
-8 -8 0 -5 -3 -9 -7 -8 -14 4 -53 -13 -53 -23 0 -5 -5 -9 -12 -9 -6 0 -20 -8
-30 -17 -17 -15 -18 -15 -13 -1 8 19 -18 19 -37 0 -7 -7 -17 -12 -24 -12 -7 0
-15 -6 -18 -12 -12 -29 5 78 25 157 12 47 20 88 17 90 -2 2 -17 -34 -33 -81
-31 -91 -44 -98 -26 -14 14 64 14 94 0 65 -6 -14 -7 -5 -3 29 5 42 4 47 -8 35
-8 -8 -20 -23 -27 -34 -11 -18 -12 -18 -7 7 4 15 2 30 -4 33 -13 8 -4 48 22
99 10 21 17 40 15 43 -7 6 -41 -46 -56 -84 -8 -18 -17 -33 -21 -33 -4 0 -10
24 -13 53 -3 28 -17 80 -31 114 -14 35 -26 77 -26 95 0 38 41 132 73 167 21
22 21 23 2 13 -27 -13 -49 -39 -70 -82 -16 -30 -19 -33 -29 -18 -9 15 -12 14
-23 -10 -13 -26 -13 -25 -9 17 3 24 9 47 14 50 10 6 13 60 4 75 -6 11 -58
-133 -68 -188 -8 -52 -26 -26 -19 29 3 22 2 34 -1 28 -12 -27 -25 -11 -20 25
3 21 -2 11 -12 -25 -30 -109 -40 -89 -16 37 3 17 -1 13 -10 -10 -13 -32 -14
-19 -9 135 6 176 -6 269 -44 335 l-14 25 7 -25 c4 -14 9 -32 11 -40 3 -8 -15
26 -40 75 -25 52 -64 111 -91 140 l-47 50 28 -45 c15 -25 35 -56 45 -69 35
-46 108 -312 108 -391 0 -61 -16 -55 -46 18 -51 119 -194 387 -194 363 0 -22
-35 28 -65 96 -15 34 -39 72 -53 85 -20 18 -24 19 -19 6 4 -10 2 -18 -3 -18
-15 0 0 -30 43 -89 62 -85 103 -203 122 -356 l6 -50 -35 70 c-39 80 -42 80
-20 6 18 -62 11 -80 -11 -28 -10 24 -20 34 -32 32 -10 -1 -37 8 -60 21 -46 27
-58 30 -47 12 4 -7 3 -8 -5 -4 -6 4 -9 11 -6 15 2 5 -24 23 -59 41 -63 33
-104 79 -90 102 4 6 3 8 -4 4 -5 -3 -20 6 -31 21 -20 27 -21 27 -18 5 2 -13
10 -28 18 -33 8 -5 10 -9 6 -9 -4 0 5 -12 20 -26 l28 -26 -30 17 c-53 32 -65
42 -58 49 4 4 -2 9 -14 12 -14 4 -19 12 -16 24 3 10 -4 23 -16 32 -12 8 -20
17 -18 19 1 2 -17 24 -41 49 -24 25 -43 41 -42 35 6 -26 -2 -28 -23 -5 -12 14
-18 19 -12 10 21 -34 -51 40 -108 110 -33 41 -88 104 -121 140 -88 95 -136
152 -136 162 0 4 -4 8 -10 8 -5 0 -3 -18 5 -41 10 -26 12 -47 6 -57 -7 -12 0
-27 26 -59 l35 -43 -28 -1 c-27 -2 -28 -2 -4 -6 37 -7 49 -23 17 -23 -15 0
-37 -10 -48 -21 -21 -21 -27 -22 -143 -15 -138 9 -127 9 -186 -3 l-45 -8 65
-3 65 -3 -55 -7 c-30 -4 24 -6 120 -4 l175 2 -190 -12 c-182 -12 -214 -20 -75
-18 60 1 62 0 25 -8 -22 -5 -67 -10 -100 -11 l-60 -1 45 -9 c25 -6 70 -8 100
-5 47 4 50 4 20 -4 -19 -6 -69 -10 -110 -10 -41 0 -86 -1 -100 -1 -25 -1 -25
-1 -2 -10 63 -25 68 -29 27 -24 -29 4 -36 3 -25 -4 23 -16 -4 -14 -47 4 -55
23 -63 17 -13 -11 39 -21 29 -24 -19 -6 -8 3 -12 1 -9 -4 4 -5 -4 -9 -17 -9
-13 0 -21 3 -19 6 4 7 -57 35 -68 31 -5 -1 -7 2 -5 8 1 5 -18 28 -43 51 -25
23 -37 36 -27 29 21 -15 23 2 2 20 -8 6 -20 8 -26 4 -8 -4 -9 -3 -5 5 4 6 1
18 -6 26 -29 32 -39 45 -33 45 3 0 -4 10 -15 22 -12 13 -19 30 -17 40 3 10 0
15 -8 12 -9 -4 -20 14 -34 51 -12 31 -21 60 -21 66 0 6 -5 7 -12 3 -7 -5 -9
-2 -5 9 3 8 2 28 -3 44 l-8 28 -1 -30 c-3 -59 -22 2 -30 93 l-8 87 -3 -75 c-2
-68 -3 -71 -11 -35 -10 52 -10 194 1 220 7 15 9 10 9 -24 1 -60 8 -49 13 22 3
40 0 61 -9 69 -11 9 -12 7 -7 -7 5 -12 4 -16 -3 -12 -11 7 -22 -32 -24 -87 -1
-17 -6 5 -10 49 -5 51 -4 97 2 128 6 26 8 55 5 64 -6 14 -8 14 -21 -3 -13 -18
-14 -18 -15 -1 0 10 7 32 16 49 9 16 11 27 5 24 -16 -10 -14 10 4 44 9 17 13
30 9 30 -3 0 1 11 10 25 9 14 15 24 14 24 -2 -1 -20 -5 -40 -8z m981 -1045
c-2 -2 -42 -6 -89 -9 -49 -3 -70 -2 -50 3 36 8 147 13 139 6z m78 -32 c-3 -3
-12 -4 -19 -1 -8 3 -5 6 6 6 11 1 17 -2 13 -5z m-432 -14 c13 -6 15 -9 5 -9
-8 0 -22 4 -30 9 -18 12 -2 12 25 0z m268 3 c-13 -2 -33 -2 -45 0 -13 2 -3 4
22 4 25 0 35 -2 23 -4z m961 -34 c15 -22 26 -43 23 -45 -4 -4 -57 71 -57 81 0
12 9 3 34 -36z m-1084 22 c0 -12 -60 -20 -95 -13 -27 6 -25 7 20 13 28 3 56 7
63 7 6 1 12 -2 12 -7z m43 2 c-7 -2 -19 -2 -25 0 -7 3 -2 5 12 5 14 0 19 -2
13 -5z m-56 -39 c-3 -3 -12 -4 -19 -1 -8 3 -5 6 6 6 11 1 17 -2 13 -5z m166
-11 c-7 -2 -19 -2 -25 0 -7 3 -2 5 12 5 14 0 19 -2 13 -5z m-512 -196 c30 -19
108 -57 173 -84 64 -27 113 -53 109 -57 -5 -5 3 -5 16 -1 14 4 21 3 18 -2 -4
-6 43 -24 105 -42 172 -50 372 -127 488 -188 58 -30 110 -59 115 -65 6 -6 -43
17 -107 51 -122 64 -231 106 -433 166 -233 71 -475 170 -475 196 0 3 -21 20
-47 37 -27 16 -61 45 -78 63 l-30 33 45 -36 c25 -20 70 -52 101 -71z m-120 46
c13 -16 12 -17 -3 -4 -10 7 -18 15 -18 17 0 8 8 3 21 -13z m1026 -51 c3 -21 1
-24 -7 -12 -11 17 -14 57 -3 46 4 -4 9 -19 10 -34z m671 -85 c-3 -17 -7 -11
-17 21 -6 24 -14 51 -17 60 -3 9 4 0 16 -21 12 -21 20 -48 18 -60z m-368 47
c0 -8 -19 -13 -24 -6 -3 5 1 9 9 9 8 0 15 -2 15 -3z m88 -36 c37 -23 40 -28
10 -20 -15 4 -19 2 -13 -7 6 -10 3 -11 -16 -1 -34 18 -38 24 -11 16 31 -10 27
1 -8 19 -35 18 -44 19 -34 3 4 -7 3 -8 -5 -4 -18 12 -1 27 22 20 12 -3 37 -15
55 -26z m37 -48 c4 -6 -1 -7 -12 -3 -16 6 -17 5 -3 -12 14 -17 14 -17 -7 -4
-16 9 -19 16 -10 21 16 10 25 10 32 -2z m-1330 -35 c33 -10 88 -18 121 -19 34
0 58 -4 53 -7 -5 -3 46 -14 113 -23 67 -10 141 -25 163 -32 22 -8 29 -11 15
-9 -14 3 -95 14 -180 25 -164 22 -282 47 -340 74 -38 18 -33 17 55 -9z m1269
-54 c-2 -3 -12 3 -22 13 -16 17 -16 18 5 5 12 -7 20 -15 17 -18z m-737 -47
c-3 -3 -12 -4 -19 -1 -8 3 -5 6 6 6 11 1 17 -2 13 -5z m256 -201 c-7 -2 -21
-2 -30 0 -10 3 -4 5 12 5 17 0 24 -2 18 -5z m144 -17 c11 -1 19 -5 15 -10 -3
-5 5 -6 18 -3 26 7 67 -8 121 -44 20 -13 45 -29 55 -36 18 -12 18 -12 -1 -5
-11 5 -42 18 -69 30 -59 27 -154 42 -244 38 -37 -2 -47 -1 -22 1 36 4 41 7 25
13 -18 8 -18 9 5 10 23 1 24 2 5 11 -14 6 -6 7 25 3 25 -4 55 -7 67 -8z m-164
-3 c-7 -2 -19 -2 -25 0 -7 3 -2 5 12 5 14 0 19 -2 13 -5z m-45 -40 c-10 -2
-26 -2 -35 0 -10 3 -2 5 17 5 19 0 27 -2 18 -5z m310 -104 c18 -5 7 -6 -33 -2
-33 3 -69 10 -80 14 -25 11 75 1 113 -12z m-215 4 c-7 -2 -19 -2 -25 0 -7 3
-2 5 12 5 14 0 19 -2 13 -5z m284 -349 c-3 -3 -12 -4 -19 -1 -8 3 -5 6 6 6 11
1 17 -2 13 -5z m-67 -15 c-19 -5 -63 -19 -98 -30 -72 -23 -96 -18 -36 8 41 17
101 30 144 31 19 0 17 -2 -10 -9z m43 -189 c82 -22 193 -67 185 -75 -3 -3 -31
6 -62 20 -32 14 -99 37 -149 50 -51 13 -83 24 -71 25 11 0 55 -9 97 -20z m-76
-96 c-3 -3 -12 -4 -19 -1 -8 3 -5 6 6 6 11 1 17 -2 13 -5z m523 -294 c8 -5 11
-10 5 -10 -5 0 -17 5 -25 10 -8 5 -10 10 -5 10 6 0 17 -5 25 -10z m893 -196
c-23 -51 -27 -72 -28 -157 l0 -98 -17 38 c-9 21 -17 55 -17 76 -1 45 18 129
28 123 4 -3 17 15 30 40 34 63 36 48 4 -22z m79 -478 c35 -39 50 -72 28 -64
-24 8 -150 143 -150 161 0 17 6 14 43 -18 23 -20 59 -56 79 -79z m-573 30
c-11 -10 -149 -16 -149 -7 0 7 29 11 77 11 42 0 74 -2 72 -4z m131 -26 c-14
-4 -47 -8 -75 -8 -47 1 -48 1 -15 8 19 4 53 8 75 8 34 0 36 -1 15 -8z" />
        <path d="M1387 3269 c7 -7 15 -10 18 -7 3 3 -2 9 -12 12 -14 6 -15 5 -6 -5z" />
        <path
            d="M1440 3245 c14 -8 30 -14 35 -14 6 0 -1 6 -15 14 -14 8 -29 14 -35
14 -5 0 1 -6 15 -14z" />
        <path d="M3693 1430 c0 -30 2 -43 4 -27 2 15 2 39 0 55 -2 15 -4 2 -4 -28z" />
        <path d="M1021 4174 c0 -11 3 -14 6 -6 3 7 2 16 -1 19 -3 4 -6 -2 -5 -13z" />
        <path d="M1635 3740 c-30 -8 -30 -8 8 -9 23 -1 36 3 32 9 -3 6 -7 9 -8 9 -1
-1 -15 -5 -32 -9z" />
        <path d="M1698 3723 c7 -3 16 -2 19 1 4 3 -2 6 -13 5 -11 0 -14 -3 -6 -6z" />
        <path d="M1573 3713 c9 -2 25 -2 35 0 9 3 1 5 -18 5 -19 0 -27 -2 -17 -5z" />
        <path d="M1808 3703 c6 -2 18 -2 25 0 6 3 1 5 -13 5 -14 0 -19 -2 -12 -5z" />
        <path d="M1217 3629 c7 -7 15 -10 18 -7 3 3 -2 9 -12 12 -14 6 -15 5 -6 -5z" />
        <path d="M1316 3561 c5 -5 20 -12 34 -15 l25 -7 -25 15 c-28 17 -50 21 -34 7z" />
        <path d="M2796 3207 c3 -10 9 -15 12 -12 3 3 0 11 -7 18 -10 9 -11 8 -5 -6z" />
        <path d="M2378 2093 c7 -3 16 -2 19 1 4 3 -2 6 -13 5 -11 0 -14 -3 -6 -6z" />
        <path d="M2286 2021 c-4 -5 3 -7 14 -4 23 6 26 13 6 13 -8 0 -17 -4 -20 -9z" />
        <path d="M2263 1953 c9 -2 23 -2 30 0 6 3 -1 5 -18 5 -16 0 -22 -2 -12 -5z" />
        <path d="M2638 1833 c7 -3 16 -2 19 1 4 3 -2 6 -13 5 -11 0 -14 -3 -6 -6z" />
        <path d="M2108 1703 c7 -3 16 -2 19 1 4 3 -2 6 -13 5 -11 0 -14 -3 -6 -6z" />
        <path d="M2828 1453 c6 -2 18 -2 25 0 6 3 1 5 -13 5 -14 0 -19 -2 -12 -5z" />
        <path d="M2928 1403 c7 -3 16 -2 19 1 4 3 -2 6 -13 5 -11 0 -14 -3 -6 -6z" />
        <path d="M3945 1084 c-9 -15 -12 -23 -6 -20 11 7 35 46 28 46 -3 0 -12 -12
-22 -26z" />
        <path d="M3028 1043 c7 -3 16 -2 19 1 4 3 -2 6 -13 5 -11 0 -14 -3 -6 -6z" />
        <path
            d="M3313 1000 c-34 -17 -67 -38 -75 -48 -11 -14 -8 -13 17 3 27 17 57
32 125 63 15 6 19 11 9 11 -9 1 -43 -13 -76 -29z" />
        <path d="M3580 965 c-14 -8 -20 -14 -14 -15 5 0 19 7 30 15 24 18 16 19 -16 0z" />
        <path
            d="M3977 891 c23 -21 58 -57 78 -81 48 -57 225 -243 198 -208 -21 28
-146 168 -242 270 -30 32 -59 58 -65 58 -6 -1 8 -18 31 -39z" />
    </g>
</svg>